REM DIRINDEX 1\2,1\3,1\4,1\5,1\6
REM DIRNAME folder01,folder02,folder03,folder04,folder05,folder06
TITLE ""
FILE "DISC2Track15.mp3" MP3
  TRACK 01 AUDIO
    TITLE "0:"
    INDEX 01 00:00:00
  TRACK 02 AUDIO
    TITLE "3:cjc129_1367"
    INDEX 01 00:00:05
  TRACK 03 AUDIO
    TITLE "0:"
    INDEX 01 00:04:25
  TRACK 04 AUDIO
    TITLE "5:cjc129_1368"
    INDEX 01 00:04:56
  TRACK 05 AUDIO
    TITLE "0:"
    INDEX 01 00:06:73
  TRACK 06 AUDIO
    TITLE "4:cjc129_1369"
    INDEX 01 00:07:62
  TRACK 07 AUDIO
    TITLE "0:"
    INDEX 01 00:12:03
  TRACK 08 AUDIO
    TITLE "6:cjc129_1370"
    INDEX 01 00:12:36
  TRACK 09 AUDIO
    TITLE "0:"
    INDEX 01 00:17:00
  TRACK 10 AUDIO
    TITLE "3:cjc129_1371"
    INDEX 01 00:18:50
  TRACK 11 AUDIO
    TITLE "0:"
    INDEX 01 00:20:36
  TRACK 12 AUDIO
    TITLE "5:cjc129_1372"
    INDEX 01 00:20:69
  TRACK 13 AUDIO
    TITLE "0:"
    INDEX 01 00:23:36
  TRACK 14 AUDIO
    TITLE "4:cjc129_1373"
    INDEX 01 00:24:25
  TRACK 15 AUDIO
    TITLE "0:"
    INDEX 01 00:26:09
  TRACK 16 AUDIO
    TITLE "6:cjc129_1374"
    INDEX 01 00:26:42
  TRACK 17 AUDIO
    TITLE "0:"
    INDEX 01 00:31:10
  TRACK 18 AUDIO
    TITLE "3:cjc129_1375"
    INDEX 01 00:32:60
  TRACK 19 AUDIO
    TITLE "0:"
    INDEX 01 00:34:36
  TRACK 20 AUDIO
    TITLE "5:cjc129_1376"
    INDEX 01 00:34:67
  TRACK 21 AUDIO
    TITLE "0:"
    INDEX 01 00:36:09
  TRACK 22 AUDIO
    TITLE "4:cjc129_1377"
    INDEX 01 00:37:01
  TRACK 23 AUDIO
    TITLE "0:"
    INDEX 01 00:38:51
  TRACK 24 AUDIO
    TITLE "6:cjc129_1378"
    INDEX 01 00:39:07
  TRACK 25 AUDIO
    TITLE "0:"
    INDEX 01 00:43:70
  TRACK 26 AUDIO
    TITLE "3:cjc129_1379"
    INDEX 01 00:45:47
  TRACK 27 AUDIO
    TITLE "0:"
    INDEX 01 00:47:19
  TRACK 28 AUDIO
    TITLE "5:cjc129_1380"
    INDEX 01 00:47:50
  TRACK 29 AUDIO
    TITLE "0:"
    INDEX 01 00:50:33
  TRACK 30 AUDIO
    TITLE "4:cjc129_1381"
    INDEX 01 00:51:22
  TRACK 31 AUDIO
    TITLE "0:"
    INDEX 01 00:52:67
  TRACK 32 AUDIO
    TITLE "6:cjc129_1382"
    INDEX 01 00:53:25
  TRACK 33 AUDIO
    TITLE "0:"
    INDEX 01 00:57:48
  TRACK 34 AUDIO
    TITLE "3:cjc129_1383"
    INDEX 01 00:59:22
  TRACK 35 AUDIO
    TITLE "0:"
    INDEX 01 01:00:31
  TRACK 36 AUDIO
    TITLE "5:cjc129_1384"
    INDEX 01 01:00:62
  TRACK 37 AUDIO
    TITLE "0:"
    INDEX 01 01:03:73
  TRACK 38 AUDIO
    TITLE "4:cjc129_1385"
    INDEX 01 01:04:62
  TRACK 39 AUDIO
    TITLE "0:"
    INDEX 01 01:05:69
  TRACK 40 AUDIO
    TITLE "6:cjc129_1386"
    INDEX 01 01:06:28
  TRACK 41 AUDIO
    TITLE "0:"
    INDEX 01 01:10:51
  TRACK 42 AUDIO
    TITLE "3:cjc129_1387"
    INDEX 01 01:12:26
  TRACK 43 AUDIO
    TITLE "0:"
    INDEX 01 01:13:49
  TRACK 44 AUDIO
    TITLE "5:cjc129_1388"
    INDEX 01 01:14:04
  TRACK 45 AUDIO
    TITLE "0:"
    INDEX 01 01:17:24
  TRACK 46 AUDIO
    TITLE "4:cjc129_1389"
    INDEX 01 01:18:13
  TRACK 47 AUDIO
    TITLE "0:"
    INDEX 01 01:19:34
  TRACK 48 AUDIO
    TITLE "6:cjc129_1390"
    INDEX 01 01:19:66
  TRACK 49 AUDIO
    TITLE "0:"
    INDEX 01 01:23:69
  TRACK 50 AUDIO
    TITLE "3:cjc129_1391"
    INDEX 01 01:25:45
  TRACK 51 AUDIO
    TITLE "0:"
    INDEX 01 01:26:66
  TRACK 52 AUDIO
    TITLE "5:cjc129_1392"
    INDEX 01 01:27:26
  TRACK 53 AUDIO
    TITLE "0:"
    INDEX 01 01:28:63
  TRACK 54 AUDIO
    TITLE "4:cjc129_1393"
    INDEX 01 01:29:54
  TRACK 55 AUDIO
    TITLE "0:"
    INDEX 01 01:31:00
  TRACK 56 AUDIO
    TITLE "6:cjc129_1394"
    INDEX 01 01:31:36
  TRACK 57 AUDIO
    TITLE "0:"
    INDEX 01 01:36:00
  TRACK 58 AUDIO
    TITLE "3:cjc129_1395"
    INDEX 01 01:37:48
  TRACK 59 AUDIO
    TITLE "0:"
    INDEX 01 01:39:04
  TRACK 60 AUDIO
    TITLE "5:cjc129_1396"
    INDEX 01 01:39:33
  TRACK 61 AUDIO
    TITLE "0:"
    INDEX 01 01:41:03
  TRACK 62 AUDIO
    TITLE "4:cjc129_1397"
    INDEX 01 01:41:71
  TRACK 63 AUDIO
    TITLE "0:"
    INDEX 01 01:43:25
  TRACK 64 AUDIO
    TITLE "6:cjc129_1398"
    INDEX 01 01:43:56
  TRACK 65 AUDIO
    TITLE "0:"
    INDEX 01 01:47:60
